<svg width="65" height="65" viewBox="0 0 65 65" fill="none" xmlns="http://www.w3.org/2000/svg">
<path d="M54.3783 32.5C54.3783 31.7383 54.1243 31.1035 53.6165 30.5957L49.7656 26.7448L34.4466 11.4258C33.9388 10.918 33.304 10.6641 32.5423 10.6641C31.7806 10.6641 31.1458 10.918 30.638 11.4258L26.7871 15.2767C26.2793 15.7845 26.0254 16.4193 26.0254 17.181C26.0254 17.9427 26.2793 18.5775 26.7871 19.0853L34.7852 27.0833H13.5417C12.8082 27.0833 12.1734 27.3513 11.6374 27.8874C11.1013 28.4234 10.8333 29.0582 10.8333 29.7917V35.2083C10.8333 35.9418 11.1013 36.5766 11.6374 37.1126C12.1734 37.6487 12.8082 37.9167 13.5417 37.9167H34.7852L26.7871 45.9147C26.2511 46.4507 25.9831 47.0855 25.9831 47.819C25.9831 48.5525 26.2511 49.1873 26.7871 49.7233L30.638 53.5742C31.1458 54.082 31.7806 54.3359 32.5423 54.3359C33.304 54.3359 33.9388 54.082 34.4466 53.5742L49.7656 38.2552L53.6165 34.4043C54.1243 33.8965 54.3783 33.2617 54.3783 32.5ZM65 32.5C65 38.3963 63.5471 43.8341 60.6413 48.8135C57.7355 53.7929 53.7929 57.7355 48.8135 60.6413C43.8341 63.5471 38.3963 65 32.5 65C26.6037 65 21.1659 63.5471 16.1865 60.6413C11.2071 57.7355 7.26454 53.7929 4.35872 48.8135C1.45291 43.8341 0 38.3963 0 32.5C0 26.6037 1.45291 21.1659 4.35872 16.1865C7.26454 11.2071 11.2071 7.26454 16.1865 4.35872C21.1659 1.45291 26.6037 0 32.5 0C38.3963 0 43.8341 1.45291 48.8135 4.35872C53.7929 7.26454 57.7355 11.2071 60.6413 16.1865C63.5471 21.1659 65 26.6037 65 32.5Z" fill="#FF7F50"/>
</svg>
