<svg width="65" height="65" viewBox="0 0 65 65" fill="none" xmlns="http://www.w3.org/2000/svg">
<path d="M10.6217 32.5C10.6217 33.2617 10.8757 33.8965 11.3835 34.4043L15.2344 38.2552L30.5534 53.5742C31.0612 54.082 31.696 54.3359 32.4577 54.3359C33.2194 54.3359 33.8542 54.082 34.362 53.5742L38.2129 49.7233C38.7207 49.2155 38.9746 48.5807 38.9746 47.819C38.9746 47.0573 38.7207 46.4225 38.2129 45.9147L30.2148 37.9167L51.4583 37.9167C52.1918 37.9167 52.8266 37.6487 53.3626 37.1126C53.8987 36.5766 54.1667 35.9418 54.1667 35.2083L54.1667 29.7917C54.1667 29.0582 53.8987 28.4234 53.3626 27.8874C52.8266 27.3513 52.1918 27.0833 51.4583 27.0833H30.2148L38.2129 19.0853C38.7489 18.5493 39.0169 17.9145 39.0169 17.181C39.0169 16.4475 38.7489 15.8127 38.2129 15.2767L34.362 11.4258C33.8542 10.918 33.2194 10.6641 32.4577 10.6641C31.696 10.6641 31.0612 10.918 30.5534 11.4258L15.2344 26.7448L11.3835 30.5957C10.8757 31.1035 10.6217 31.7383 10.6217 32.5ZM0 32.5C0 26.6037 1.45291 21.1659 4.35873 16.1865C7.26454 11.2071 11.2071 7.26454 16.1865 4.35873C21.1659 1.45291 26.6037 0 32.5 0C38.3963 0 43.8341 1.45291 48.8135 4.35873C53.7929 7.26454 57.7355 11.2071 60.6413 16.1865C63.5471 21.1659 65 26.6037 65 32.5C65 38.3963 63.5471 43.8341 60.6413 48.8135C57.7355 53.7929 53.7929 57.7355 48.8135 60.6413C43.8341 63.5471 38.3963 65 32.5 65C26.6037 65 21.1659 63.5471 16.1865 60.6413C11.2071 57.7355 7.26454 53.7929 4.35873 48.8135C1.45291 43.8341 0 38.3963 0 32.5Z" fill="#FF7F50"/>
</svg>
