<svg width="75" height="75" viewBox="0 0 75 75" fill="none" xmlns="http://www.w3.org/2000/svg">
<path d="M48.75 33.75H41.25V18.75C41.25 17.7554 40.8549 16.8016 40.1517 16.0983C39.4484 15.3951 38.4946 15 37.5 15C36.5054 15 35.5516 15.3951 34.8484 16.0983C34.1451 16.8016 33.75 17.7554 33.75 18.75V37.5C33.75 38.4946 34.1451 39.4484 34.8484 40.1516C35.5516 40.8549 36.5054 41.25 37.5 41.25H48.75C49.7446 41.25 50.6984 40.8549 51.4017 40.1516C52.1049 39.4484 52.5 38.4946 52.5 37.5C52.5 36.5054 52.1049 35.5516 51.4017 34.8483C50.6984 34.1451 49.7446 33.75 48.75 33.75ZM37.5 0C30.0832 0 22.833 2.19934 16.6661 6.31989C10.4993 10.4404 5.69282 16.2971 2.85453 23.1494C0.0162481 30.0016 -0.726377 37.5416 0.720569 44.8159C2.16751 52.0902 5.73904 58.772 10.9835 64.0165C16.228 69.261 22.9098 72.8325 30.1841 74.2794C37.4584 75.7264 44.9984 74.9837 51.8506 72.1455C58.7029 69.3072 64.5596 64.5007 68.6801 58.3339C72.8007 52.167 75 44.9168 75 37.5C74.9889 27.5578 71.0345 18.0259 64.0043 10.9957C56.9741 3.96549 47.4422 0.0110572 37.5 0ZM37.5 67.5C31.5666 67.5 25.7664 65.7405 20.8329 62.4441C15.8994 59.1476 12.0543 54.4623 9.78363 48.9805C7.513 43.4987 6.9189 37.4667 8.07646 31.6473C9.23401 25.8279 12.0912 20.4824 16.2868 16.2868C20.4824 12.0912 25.8279 9.234 31.6473 8.07644C37.4667 6.91888 43.4987 7.51298 48.9805 9.78361C54.4623 12.0542 59.1476 15.8994 62.4441 20.8329C65.7405 25.7664 67.5 31.5666 67.5 37.5C67.4909 45.4537 64.3273 53.079 58.7032 58.7031C53.079 64.3273 45.4537 67.4909 37.5 67.5Z" fill="#FF7F50"/>
</svg>
