
      <svg width="336" height="65" viewBox="0 0 336 65" fill="none" xmlns="http://www.w3.org/2000/svg">
        <g id="FiveStars">
          <path d="M32.4238 4.90723C32.7922 3.82115 34.3279 3.82116 34.6963 4.90723L40.2295 21.2207C40.5323 22.1134 41.3708 22.7148 42.3135 22.7148H60.0596C61.2342 22.7152 61.7084 24.2283 60.7441 24.8994L46.5156 34.8027C45.7112 35.3626 45.3737 36.3873 45.6885 37.3154L51.1533 53.4258C51.5252 54.5223 50.2814 55.4582 49.3311 54.7969L34.8164 44.6943C34.0612 44.1689 33.0589 44.1689 32.3037 44.6943L17.7891 54.7969C16.8387 55.4582 15.5949 54.5223 15.9668 53.4258L21.4316 37.3154C21.7464 36.3873 21.4089 35.3626 20.6045 34.8027L6.375 24.8994C5.41122 24.2282 5.88609 22.7152 7.06055 22.7148H24.8066C25.7493 22.7148 26.5878 22.1134 26.8906 21.2207L32.4238 4.90723Z" stroke="#051635" stroke-width="1" fill="none"/>
          <path d="M99.5441 4.90723C99.9124 3.82115 101.448 3.82116 101.817 4.90723L107.35 21.2207C107.653 22.1134 108.491 22.7148 109.434 22.7148H127.18C128.354 22.7152 128.829 24.2283 127.864 24.8994L113.636 34.8027C112.831 35.3626 112.494 36.3873 112.809 37.3154L118.274 53.4258C118.645 54.5223 117.402 55.4582 116.451 54.7969L101.937 44.6943C101.181 44.1689 100.179 44.1689 99.424 44.6943L84.9093 54.7969C83.9589 55.4582 82.7151 54.5223 83.087 53.4258L88.5519 37.3154C88.8667 36.3873 88.5291 35.3626 87.7247 34.8027L73.4952 24.8994C72.5315 24.2282 73.0063 22.7152 74.1808 22.7148H91.9269C92.8696 22.7148 93.7081 22.1134 94.0109 21.2207L99.5441 4.90723Z" stroke="#051635" stroke-width="1" fill="none"/>
          <path d="M166.664 4.90723C167.033 3.82115 168.568 3.82116 168.937 4.90723L174.47 21.2207C174.773 22.1134 175.611 22.7148 176.554 22.7148H194.3C195.475 22.7152 195.949 24.2283 194.985 24.8994L180.756 34.8027C179.952 35.3626 179.614 36.3873 179.929 37.3154L185.394 53.4258C185.766 54.5223 184.522 55.4582 183.572 54.7969L169.057 44.6943C168.302 44.1689 167.299 44.1689 166.544 44.6943L152.03 54.7969C151.079 55.4582 149.835 54.5223 150.207 53.4258L155.672 37.3154C155.987 36.3873 155.649 35.3626 154.845 34.8027L140.615 24.8994C139.652 24.2282 140.127 22.7152 141.301 22.7148H159.047C159.99 22.7148 160.828 22.1134 161.131 21.2207L166.664 4.90723Z" stroke="#051635" stroke-width="1" fill="none"/>
          <path d="M233.784 4.90723C234.153 3.82115 235.689 3.82116 236.057 4.90723L241.59 21.2207C241.893 22.1134 242.731 22.7148 243.674 22.7148H261.42C262.595 22.7152 263.069 24.2283 262.105 24.8994L247.876 34.8027C247.072 35.3626 246.734 36.3873 247.049 37.3154L252.514 53.4258C252.886 54.5223 251.642 55.4582 250.692 54.7969L236.177 44.6943C235.422 44.1689 234.42 44.1689 233.664 44.6943L219.15 54.7969C218.199 55.4582 216.955 54.5223 217.327 53.4258L222.792 37.3154C223.107 36.3873 222.769 35.3626 221.965 34.8027L207.736 24.8994C206.772 24.2282 207.247 22.7152 208.421 22.7148H226.167C227.11 22.7148 227.948 22.1134 228.251 21.2207L233.784 4.90723Z" stroke="#051635" stroke-width="1" fill="none"/>
          <path d="M300.905 4.90723C301.273 3.82115 302.809 3.82116 303.177 4.90723L308.71 21.2207C309.013 22.1134 309.851 22.7148 310.794 22.7148H328.54C329.715 22.7152 330.189 24.2283 329.225 24.8994L314.996 34.8027C314.192 35.3626 313.854 36.3873 314.169 37.3154L319.634 53.4258C320.006 54.5223 318.762 55.4582 317.812 54.7969L303.297 44.6943C302.542 44.1689 301.54 44.1689 300.784 44.6943L286.27 54.7969C285.319 55.4582 284.076 54.5223 284.448 53.4258L289.912 37.3154C290.227 36.3873 289.89 35.3626 289.085 34.8027L274.856 24.8994C273.892 24.2282 274.367 22.7152 275.541 22.7148H293.287C294.23 22.7148 295.069 22.1134 295.371 21.2207L300.905 4.90723Z" stroke="#051635" stroke-width="1" fill="none"/>
        </g>
      </svg>
    