<svg width="163" height="31" viewBox="0 0 163 31" fill="none" xmlns="http://www.w3.org/2000/svg">
<path d="M13.9809 4.41023C14.3974 3.12843 16.2108 3.12843 16.6272 4.41023L18.4277 9.95138C18.6139 10.5246 19.1481 10.9127 19.7509 10.9127H25.5772C26.9249 10.9127 27.4853 12.6374 26.3949 13.4296L21.6814 16.8542C21.1937 17.2085 20.9897 17.8365 21.1759 18.4097L22.9764 23.9508C23.3929 25.2326 21.9258 26.2985 20.8354 25.5063L16.1218 22.0817C15.6342 21.7274 14.9739 21.7274 14.4863 22.0817L9.7727 25.5063C8.68233 26.2985 7.21526 25.2326 7.63174 23.9508L9.43217 18.4097C9.61843 17.8365 9.41438 17.2085 8.92676 16.8542L4.21317 13.4296C3.12281 12.6374 3.68318 10.9127 5.03095 10.9127H10.8573C11.46 10.9127 11.9942 10.5246 12.1804 9.95138L13.9809 4.41023Z" fill="#FF8F66"/>
<path d="M44.589 4.41023C45.0055 3.12843 46.8189 3.12843 47.2354 4.41023L49.0358 9.95138C49.2221 10.5246 49.7563 10.9127 50.359 10.9127H56.1853C57.5331 10.9127 58.0935 12.6374 57.0031 13.4296L52.2895 16.8542C51.8019 17.2085 51.5978 17.8365 51.7841 18.4097L53.5845 23.9508C54.001 25.2326 52.5339 26.2985 51.4436 25.5063L46.73 22.0817C46.2424 21.7274 45.5821 21.7274 45.0944 22.0817L40.3809 25.5063C39.2905 26.2985 37.8234 25.2326 38.2399 23.9508L40.0403 18.4097C40.2266 17.8365 40.0225 17.2085 39.5349 16.8542L34.8213 13.4296C33.731 12.6374 34.2913 10.9127 35.6391 10.9127H41.4654C42.0682 10.9127 42.6023 10.5246 42.7886 9.95138L44.589 4.41023Z" fill="#FF8F66"/>
<path d="M75.1972 4.41023C75.6137 3.12843 77.4271 3.12843 77.8435 4.41023L79.644 9.95138C79.8302 10.5246 80.3644 10.9127 80.9672 10.9127H86.7935C88.1412 10.9127 88.7016 12.6374 87.6112 13.4296L82.8977 16.8542C82.41 17.2085 82.206 17.8365 82.3923 18.4097L84.1927 23.9508C84.6092 25.2326 83.1421 26.2985 82.0517 25.5063L77.3381 22.0817C76.8505 21.7274 76.1902 21.7274 75.7026 22.0817L70.989 25.5063C69.8986 26.2985 68.4316 25.2326 68.848 23.9508L70.6485 18.4097C70.8347 17.8365 70.6307 17.2085 70.1431 16.8542L65.4295 13.4296C64.3391 12.6374 64.8995 10.9127 66.2473 10.9127H72.0736C72.6763 10.9127 73.2105 10.5246 73.3968 9.95138L75.1972 4.41023Z" fill="#FF8F66"/>
<path d="M105.805 4.41023C106.222 3.12843 108.035 3.12843 108.451 4.41023L110.252 9.95138C110.438 10.5246 110.972 10.9127 111.575 10.9127H117.401C118.749 10.9127 119.31 12.6374 118.219 13.4296L113.506 16.8542C113.018 17.2085 112.814 17.8365 113 18.4097L114.801 23.9508C115.217 25.2326 113.75 26.2985 112.66 25.5063L107.946 22.0817C107.458 21.7274 106.798 21.7274 106.311 22.0817L101.597 25.5063C100.507 26.2985 99.0395 25.2326 99.456 23.9508L101.256 18.4097C101.443 17.8365 101.239 17.2085 100.751 16.8542L96.0374 13.4296C94.947 12.6374 95.5074 10.9127 96.8552 10.9127H102.681C103.284 10.9127 103.818 10.5246 104.005 9.95138L105.805 4.41023Z" fill="#FF8F66"/>
<path d="M136.413 4.41023C136.83 3.12843 138.643 3.12843 139.06 4.41023L140.86 9.95138C141.046 10.5246 141.58 10.9127 142.183 10.9127H148.01C149.357 10.9127 149.918 12.6374 148.827 13.4296L144.114 16.8542C143.626 17.2085 143.422 17.8365 143.608 18.4097L145.409 23.9508C145.825 25.2326 144.358 26.2985 143.268 25.5063L138.554 22.0817C138.067 21.7274 137.406 21.7274 136.919 22.0817L132.205 25.5063C131.115 26.2985 129.648 25.2326 130.064 23.9508L131.865 18.4097C132.051 17.8365 131.847 17.2085 131.359 16.8542L126.646 13.4296C125.555 12.6374 126.116 10.9127 127.463 10.9127H133.29C133.892 10.9127 134.427 10.5246 134.613 9.95138L136.413 4.41023Z" fill="white"/>
</svg>
