<svg width="75" height="75" viewBox="0 0 75 75" fill="none" xmlns="http://www.w3.org/2000/svg">
<path d="M19.6758 10.6289C19.8516 9.08201 18.7383 7.6992 17.1914 7.52342C15.6445 7.34764 14.2617 8.46092 14.0859 10.0078L12.2109 26.8828L12.1992 27.0351V29.0625C12.1992 34.7578 16.8164 39.375 22.5117 39.375H23.4492V64.6875C23.4492 66.2461 24.7031 67.5 26.2617 67.5C27.8203 67.5 29.0742 66.2461 29.0742 64.6875V39.375H30.0117C35.707 39.375 40.3242 34.7578 40.3242 29.0625V27.0351L40.3125 26.8828L38.4375 10.0078C38.25 8.46092 36.8555 7.34764 35.3086 7.5117C33.7617 7.67576 32.6484 9.0703 32.8242 10.6172L34.6875 27.3398V29.0625C34.6875 31.6523 32.5898 33.75 30 33.75H22.5C19.9102 33.75 17.8125 31.6523 17.8125 29.0625V27.3398L19.6758 10.6172V10.6289ZM29.0625 10.3125C29.0625 8.75389 27.8086 7.49998 26.25 7.49998C24.6914 7.49998 23.4375 8.75389 23.4375 10.3125V27.1875C23.4375 28.7461 24.6914 30 26.25 30C27.8086 30 29.0625 28.7461 29.0625 27.1875V10.3125ZM50.625 28.125C50.625 21.3633 53.168 17.7422 55.4766 15.7383C56.3789 14.9648 57.293 14.3789 58.125 13.957V43.125H52.5C51.4688 43.125 50.625 42.2812 50.625 41.25V28.125ZM58.125 48.75V64.6875C58.125 66.2461 59.3789 67.5 60.9375 67.5C62.4961 67.5 63.75 66.2461 63.75 64.6875V11.25C63.75 9.17576 62.0742 7.49998 60 7.49998C58.125 7.49998 45 11.25 45 28.125V41.25C45 45.3867 48.3633 48.75 52.5 48.75H58.125Z" fill="#FF7F50"/>
</svg>
