<svg width="100" height="100" viewBox="0 0 100 100" fill="none" xmlns="http://www.w3.org/2000/svg">
<circle cx="50" cy="50" r="50" fill="#0C398B"/>
<path d="M62 32.2273C62 23.7397 59.0703 13.9161 57.3125 5.95894V5.89999H55.75L55.7109 28.8676C55.7109 30.0661 55.1445 31.0485 53.9531 31.0485C52.8398 31.0485 52.3906 30.2036 52.2734 29.1034C52.2539 29.0248 52.2734 28.9462 52.2734 28.8676L50.2617 5.89999H48.6992L46.9414 28.8873L46.9219 29.1034C46.8047 30.2036 46.1992 31.0485 45.0664 31.0485C43.875 31.0485 43.2891 30.0661 43.2891 28.8676L43.2109 5.89999H41.6484C39.9297 13.9554 37 23.7593 37 32.2469C37 37.2963 39.8516 41.6973 44.168 43.6816C46.3555 44.6837 46.375 45.7053 46.375 45.7053C46.375 45.7053 43.25 85.3338 43.25 87.5736C43.25 89.8134 44.0312 91.2083 45.1055 92.2889C46.1797 93.3695 47.8789 93.9 49.4805 93.9H49.5586C51.1602 93.9 52.8398 93.3695 53.9336 92.2889C55.0078 91.2083 55.75 90.1474 55.75 87.5736C55.75 84.9998 52.625 45.7053 52.625 45.7053C52.625 45.7053 52.4297 44.7229 54.8516 43.6227C59.0703 41.6973 62 37.2963 62 32.2273Z" fill="#EFE9E7" fill-opacity="0.937255"/>
</svg>
